<svg width="184" height="309" viewBox="0 0 184 309" fill="none" xmlns="http://www.w3.org/2000/svg">
<path d="M2 12.833C2 7.31016 6.47716 2.83301 12 2.83301H172C177.523 2.83301 182 7.31016 182 12.833V97.0431C182 100.625 180.085 103.933 176.979 105.716L92 154.5L7.02133 105.716C3.9153 103.933 2 100.625 2 97.0431V12.833Z" fill="#F5F5F5"/>
<path d="M182 211.956C182 208.375 180.085 205.067 176.979 203.284L92 154.5L7.02132 203.284C3.9153 205.067 2 208.375 2 211.956V296.166C2 301.689 6.47715 306.166 12 306.166H172C177.523 306.166 182 301.689 182 296.166V211.956Z" fill="#F5F5F5"/>
<path d="M92 154.5L176.979 105.716C180.085 103.933 182 100.625 182 97.0431V12.833C182 7.31016 177.523 2.83301 172 2.83301H12C6.47716 2.83301 2 7.31016 2 12.833V97.0431C2 100.625 3.9153 103.933 7.02133 105.716L92 154.5ZM92 154.5L176.979 203.284C180.085 205.067 182 208.375 182 211.956V296.166C182 301.689 177.523 306.166 172 306.166H12C6.47715 306.166 2 301.689 2 296.166V211.956C2 208.375 3.9153 205.067 7.02132 203.284L92 154.5Z" stroke="#00A3FF" stroke-width="4"/>
<path d="M34.7766 93.9443C29.6451 93.9443 27.8433 100.751 32.3027 103.289L89.5261 135.869C91.0598 136.742 92.9402 136.742 94.4738 135.869L151.697 103.289C156.157 100.751 154.355 93.9443 149.223 93.9443H34.7766Z" fill="#0EC679"/>
<rect x="15.3333" y="233.944" width="153.333" height="60" rx="5" fill="#0EC679"/>
<circle cx="92" cy="181.723" r="5.55556" fill="#0EC679"/>
<circle cx="92" cy="198.39" r="5.55556" fill="#0EC679"/>
<circle cx="92" cy="215.056" r="5.55556" fill="#0EC679"/>
</svg>
