<svg width="300" height="747" viewBox="0 0 300 747" fill="none" xmlns="http://www.w3.org/2000/svg">
<circle cx="56.375" cy="67.1992" r="14" fill="#F5F5F5" stroke="#00A3FF" stroke-width="4"/>
<circle cx="120.375" cy="99.4492" r="14" fill="#F5F5F5" stroke="#00A3FF" stroke-width="4"/>
<path fill-rule="evenodd" clip-rule="evenodd" d="M253.125 83.418V97.418C253.125 98.518 254.015 99.418 255.125 99.418H269.125C270.225 99.418 271.125 98.518 271.125 97.418V83.418C271.125 82.318 270.225 81.418 269.125 81.418H255.125C254.015 81.418 253.125 82.318 253.125 83.418ZM265.125 87.418C265.125 89.078 263.785 90.418 262.125 90.418C260.465 90.418 259.125 89.078 259.125 87.418C259.125 85.758 260.465 84.418 262.125 84.418C263.785 84.418 265.125 85.758 265.125 87.418ZM262.125 92.3184C260.125 92.3184 256.125 93.4184 256.125 95.4184V96.4184H268.125V95.4184C268.125 93.4184 264.125 92.3184 262.125 92.3184Z" fill="#0EC679"/>
<path fill-rule="evenodd" clip-rule="evenodd" d="M91.875 141.449V155.449C91.875 156.549 92.765 157.449 93.875 157.449H107.875C108.975 157.449 109.875 156.549 109.875 155.449V141.449C109.875 140.349 108.975 139.449 107.875 139.449H93.875C92.765 139.449 91.875 140.349 91.875 141.449ZM103.875 145.449C103.875 147.109 102.535 148.449 100.875 148.449C99.215 148.449 97.875 147.109 97.875 145.449C97.875 143.789 99.215 142.449 100.875 142.449C102.535 142.449 103.875 143.789 103.875 145.449ZM100.875 150.35C98.875 150.35 94.875 151.45 94.875 153.45V154.45H106.875V153.45C106.875 151.45 102.875 150.35 100.875 150.35Z" fill="#0EC679"/>
<path fill-rule="evenodd" clip-rule="evenodd" d="M28.875 18.4492V32.4492C28.875 33.5492 29.765 34.4492 30.875 34.4492H44.875C45.975 34.4492 46.875 33.5492 46.875 32.4492V18.4492C46.875 17.3492 45.975 16.4492 44.875 16.4492H30.875C29.765 16.4492 28.875 17.3492 28.875 18.4492ZM40.875 22.4492C40.875 24.1092 39.535 25.4492 37.875 25.4492C36.215 25.4492 34.875 24.1092 34.875 22.4492C34.875 20.7892 36.215 19.4492 37.875 19.4492C39.535 19.4492 40.875 20.7892 40.875 22.4492ZM37.875 27.3496C35.875 27.3496 31.875 28.4496 31.875 30.4496V31.4496H43.875V30.4496C43.875 28.4496 39.875 27.3496 37.875 27.3496Z" fill="#0EC679"/>
<path fill-rule="evenodd" clip-rule="evenodd" d="M161.125 46.9492V60.9492C161.125 62.0492 162.015 62.9492 163.125 62.9492H177.125C178.225 62.9492 179.125 62.0492 179.125 60.9492V46.9492C179.125 45.8492 178.225 44.9492 177.125 44.9492H163.125C162.015 44.9492 161.125 45.8492 161.125 46.9492ZM173.125 50.9492C173.125 52.6092 171.785 53.9492 170.125 53.9492C168.465 53.9492 167.125 52.6092 167.125 50.9492C167.125 49.2892 168.465 47.9492 170.125 47.9492C171.785 47.9492 173.125 49.2892 173.125 50.9492ZM170.125 55.8496C168.125 55.8496 164.125 56.9496 164.125 58.9496V59.9496H176.125V58.9496C176.125 56.9496 172.125 55.8496 170.125 55.8496Z" fill="#0EC679"/>
<path fill-rule="evenodd" clip-rule="evenodd" d="M222.125 162.949V176.949C222.125 178.049 223.015 178.949 224.125 178.949H238.125C239.225 178.949 240.125 178.049 240.125 176.949V162.949C240.125 161.849 239.225 160.949 238.125 160.949H224.125C223.015 160.949 222.125 161.849 222.125 162.949ZM234.125 166.949C234.125 168.609 232.785 169.949 231.125 169.949C229.465 169.949 228.125 168.609 228.125 166.949C228.125 165.289 229.465 163.949 231.125 163.949C232.785 163.949 234.125 165.289 234.125 166.949ZM231.125 171.85C229.125 171.85 225.125 172.95 225.125 174.95V175.95H237.125V174.95C237.125 172.95 233.125 171.85 231.125 171.85Z" fill="#0EC679"/>
<circle cx="50.375" cy="154.449" r="14" fill="#F5F5F5" stroke="#00A3FF" stroke-width="4"/>
<circle cx="190.375" cy="129.574" r="14" fill="#F5F5F5" stroke="#00A3FF" stroke-width="4"/>
<circle cx="137.125" cy="16.1992" r="14" fill="#F5F5F5" stroke="#00A3FF" stroke-width="4"/>
<circle cx="227.375" cy="37.4492" r="14" fill="#F5F5F5" stroke="#00A3FF" stroke-width="4"/>
<path d="M149.005 216.449V227.619L144.125 222.739C143.735 222.349 143.095 222.349 142.705 222.739C142.315 223.129 142.315 223.759 142.705 224.149L149.295 230.739C149.685 231.129 150.315 231.129 150.705 230.739L157.295 224.149C157.685 223.759 157.685 223.129 157.295 222.739C157.108 222.552 156.855 222.447 156.59 222.447C156.325 222.447 156.072 222.552 155.885 222.739L151.005 227.619V216.449C151.005 215.899 150.555 215.449 150.005 215.449C149.455 215.449 149.005 215.899 149.005 216.449Z" fill="#00A3FF"/>
<circle cx="126" cy="296.062" r="14" fill="#F5F5F5" stroke="#00A3FF" stroke-width="4"/>
<circle cx="168" cy="296.062" r="14" fill="#F5F5F5" stroke="#00A3FF" stroke-width="4"/>
<circle cx="210" cy="296.062" r="14" fill="#F5F5F5" stroke="#00A3FF" stroke-width="4"/>
<circle cx="126" cy="338.062" r="14" fill="#F5F5F5" stroke="#00A3FF" stroke-width="4"/>
<circle cx="168" cy="338.062" r="14" fill="#F5F5F5" stroke="#00A3FF" stroke-width="4"/>
<circle cx="126" cy="380.062" r="14" fill="#F5F5F5" stroke="#00A3FF" stroke-width="4"/>
<path fill-rule="evenodd" clip-rule="evenodd" d="M60 298V312C60 313.1 60.89 314 62 314H76C77.1 314 78 313.1 78 312V298C78 296.9 77.1 296 76 296H62C60.89 296 60 296.9 60 298ZM72 302C72 303.66 70.66 305 69 305C67.34 305 66 303.66 66 302C66 300.34 67.34 299 69 299C70.66 299 72 300.34 72 302ZM69 306.9C67 306.9 63 308 63 310V311H75V310C75 308 71 306.9 69 306.9Z" fill="#0EC679"/>
<path fill-rule="evenodd" clip-rule="evenodd" d="M28.375 347V361C28.375 362.1 29.265 363 30.375 363H44.375C45.475 363 46.375 362.1 46.375 361V347C46.375 345.9 45.475 345 44.375 345H30.375C29.265 345 28.375 345.9 28.375 347ZM40.375 351C40.375 352.66 39.035 354 37.375 354C35.715 354 34.375 352.66 34.375 351C34.375 349.34 35.715 348 37.375 348C39.035 348 40.375 349.34 40.375 351ZM37.375 355.9C35.375 355.9 31.375 357 31.375 359V360H43.375V359C43.375 357 39.375 355.9 37.375 355.9Z" fill="#0EC679"/>
<path fill-rule="evenodd" clip-rule="evenodd" d="M242.375 347.219V361.219C242.375 362.319 243.265 363.219 244.375 363.219H258.375C259.475 363.219 260.375 362.319 260.375 361.219V347.219C260.375 346.119 259.475 345.219 258.375 345.219H244.375C243.265 345.219 242.375 346.119 242.375 347.219ZM254.375 351.219C254.375 352.879 253.035 354.219 251.375 354.219C249.715 354.219 248.375 352.879 248.375 351.219C248.375 349.559 249.715 348.219 251.375 348.219C253.035 348.219 254.375 349.559 254.375 351.219ZM251.375 356.119C249.375 356.119 245.375 357.219 245.375 359.219V360.219H257.375V359.219C257.375 357.219 253.375 356.119 251.375 356.119Z" fill="#0EC679"/>
<path fill-rule="evenodd" clip-rule="evenodd" d="M169.375 406.219V420.219C169.375 421.319 170.265 422.219 171.375 422.219H185.375C186.475 422.219 187.375 421.319 187.375 420.219V406.219C187.375 405.119 186.475 404.219 185.375 404.219H171.375C170.265 404.219 169.375 405.119 169.375 406.219ZM181.375 410.219C181.375 411.879 180.035 413.219 178.375 413.219C176.715 413.219 175.375 411.879 175.375 410.219C175.375 408.559 176.715 407.219 178.375 407.219C180.035 407.219 181.375 408.559 181.375 410.219ZM178.375 415.119C176.375 415.119 172.375 416.219 172.375 418.219V419.219H184.375V418.219C184.375 416.219 180.375 415.119 178.375 415.119Z" fill="#0EC679"/>
<path fill-rule="evenodd" clip-rule="evenodd" d="M253.625 269.531V283.531C253.625 284.631 254.515 285.531 255.625 285.531H269.625C270.725 285.531 271.625 284.631 271.625 283.531V269.531C271.625 268.431 270.725 267.531 269.625 267.531H255.625C254.515 267.531 253.625 268.431 253.625 269.531ZM265.625 273.531C265.625 275.191 264.285 276.531 262.625 276.531C260.965 276.531 259.625 275.191 259.625 273.531C259.625 271.871 260.965 270.531 262.625 270.531C264.285 270.531 265.625 271.871 265.625 273.531ZM262.625 278.432C260.625 278.432 256.625 279.532 256.625 281.532V282.532H268.625V281.532C268.625 279.532 264.625 278.432 262.625 278.432Z" fill="#0EC679"/>
<path d="M149.005 459.719V470.889L144.125 466.009C143.735 465.619 143.095 465.619 142.705 466.009C142.315 466.399 142.315 467.029 142.705 467.419L149.295 474.009C149.685 474.399 150.315 474.399 150.705 474.009L157.295 467.419C157.685 467.029 157.685 466.399 157.295 466.009C157.108 465.821 156.855 465.716 156.59 465.716C156.325 465.716 156.072 465.821 155.885 466.009L151.005 470.889V459.719C151.005 459.169 150.555 458.719 150.005 458.719C149.455 458.719 149.005 459.169 149.005 459.719Z" fill="#00A3FF"/>
<rect x="46" y="512.801" width="208" height="68" rx="34" fill="#F5F5F5"/>
<path fill-rule="evenodd" clip-rule="evenodd" d="M64 539.801V553.801C64 554.901 64.89 555.801 66 555.801H80C81.1 555.801 82 554.901 82 553.801V539.801C82 538.701 81.1 537.801 80 537.801H66C64.89 537.801 64 538.701 64 539.801ZM76 543.801C76 545.461 74.66 546.801 73 546.801C71.34 546.801 70 545.461 70 543.801C70 542.141 71.34 540.801 73 540.801C74.66 540.801 76 542.141 76 543.801ZM73 548.701C71 548.701 67 549.801 67 551.801V552.801H79V551.801C79 549.801 75 548.701 73 548.701Z" fill="#0EC679"/>
<path fill-rule="evenodd" clip-rule="evenodd" d="M92 539.801V553.801C92 554.901 92.89 555.801 94 555.801H108C109.1 555.801 110 554.901 110 553.801V539.801C110 538.701 109.1 537.801 108 537.801H94C92.89 537.801 92 538.701 92 539.801ZM104 543.801C104 545.461 102.66 546.801 101 546.801C99.34 546.801 98 545.461 98 543.801C98 542.141 99.34 540.801 101 540.801C102.66 540.801 104 542.141 104 543.801ZM101 548.701C99 548.701 95 549.801 95 551.801V552.801H107V551.801C107 549.801 103 548.701 101 548.701Z" fill="#0EC679"/>
<circle cx="136" cy="546.801" r="14" fill="#F5F5F5" stroke="#00A3FF" stroke-width="4"/>
<circle cx="178" cy="546.801" r="14" fill="#F5F5F5" stroke="#00A3FF" stroke-width="4"/>
<circle cx="220" cy="546.801" r="14" fill="#F5F5F5" stroke="#00A3FF" stroke-width="4"/>
<rect x="46" y="512.801" width="208" height="68" rx="34" stroke="#00A3FF" stroke-width="4"/>
<rect x="67" y="594.801" width="166" height="68" rx="34" fill="#F5F5F5"/>
<path fill-rule="evenodd" clip-rule="evenodd" d="M85 621.801V635.801C85 636.901 85.89 637.801 87 637.801H101C102.1 637.801 103 636.901 103 635.801V621.801C103 620.701 102.1 619.801 101 619.801H87C85.89 619.801 85 620.701 85 621.801ZM97 625.801C97 627.461 95.66 628.801 94 628.801C92.34 628.801 91 627.461 91 625.801C91 624.141 92.34 622.801 94 622.801C95.66 622.801 97 624.141 97 625.801ZM94 630.701C92 630.701 88 631.801 88 633.801V634.801H100V633.801C100 631.801 96 630.701 94 630.701Z" fill="#0EC679"/>
<path fill-rule="evenodd" clip-rule="evenodd" d="M113 621.801V635.801C113 636.901 113.89 637.801 115 637.801H129C130.1 637.801 131 636.901 131 635.801V621.801C131 620.701 130.1 619.801 129 619.801H115C113.89 619.801 113 620.701 113 621.801ZM125 625.801C125 627.461 123.66 628.801 122 628.801C120.34 628.801 119 627.461 119 625.801C119 624.141 120.34 622.801 122 622.801C123.66 622.801 125 624.141 125 625.801ZM122 630.701C120 630.701 116 631.801 116 633.801V634.801H128V633.801C128 631.801 124 630.701 122 630.701Z" fill="#0EC679"/>
<circle cx="157" cy="628.801" r="14" fill="#F5F5F5" stroke="#00A3FF" stroke-width="4"/>
<circle cx="199" cy="628.801" r="14" fill="#F5F5F5" stroke="#00A3FF" stroke-width="4"/>
<rect x="67" y="594.801" width="166" height="68" rx="34" stroke="#00A3FF" stroke-width="4"/>
<rect x="102" y="676.801" width="96" height="68" rx="34" fill="#F5F5F5"/>
<path fill-rule="evenodd" clip-rule="evenodd" d="M120 703.801V717.801C120 718.901 120.89 719.801 122 719.801H136C137.1 719.801 138 718.901 138 717.801V703.801C138 702.701 137.1 701.801 136 701.801H122C120.89 701.801 120 702.701 120 703.801ZM132 707.801C132 709.461 130.66 710.801 129 710.801C127.34 710.801 126 709.461 126 707.801C126 706.141 127.34 704.801 129 704.801C130.66 704.801 132 706.141 132 707.801ZM129 712.701C127 712.701 123 713.801 123 715.801V716.801H135V715.801C135 713.801 131 712.701 129 712.701Z" fill="#0EC679"/>
<circle cx="164" cy="710.801" r="14" fill="#F5F5F5" stroke="#00A3FF" stroke-width="4"/>
<rect x="102" y="676.801" width="96" height="68" rx="34" stroke="#00A3FF" stroke-width="4"/>
</svg>
