<svg width="15" height="15" viewBox="0 0 15 15" fill="none" xmlns="http://www.w3.org/2000/svg">
<path d="M6.49992 13.4168C9.49146 13.4168 11.9166 10.9917 11.9166 8.00016C11.9166 5.00862 9.49146 2.5835 6.49992 2.5835C3.50838 2.5835 1.08325 5.00862 1.08325 8.00016C1.08325 10.9917 3.50838 13.4168 6.49992 13.4168Z" fill="var(--icon--color, black)"/>
<path fill-rule="evenodd" clip-rule="evenodd" d="M3.58333 6.60417C3.04255 6.60417 2.60417 7.04255 2.60417 7.58333V8.41667C2.60417 8.95745 3.04255 9.39583 3.58333 9.39583H4.41667C4.95745 9.39583 5.39583 8.95745 5.39583 8.41667V7.58333C5.39583 7.04255 4.95745 6.60417 4.41667 6.60417H3.58333ZM2.0625 7.58333C2.0625 6.7434 2.7434 6.0625 3.58333 6.0625H4.41667C5.2566 6.0625 5.9375 6.7434 5.9375 7.58333V8.41667C5.9375 9.2566 5.2566 9.9375 4.41667 9.9375H3.58333C2.7434 9.9375 2.0625 9.2566 2.0625 8.41667V7.58333Z" fill="white"/>
<path fill-rule="evenodd" clip-rule="evenodd" d="M8.58309 6.60417C8.04231 6.60417 7.60392 7.04255 7.60392 7.58333V8.41667C7.60392 8.95745 8.04231 9.39583 8.58309 9.39583H9.41642C9.9572 9.39583 10.3956 8.95745 10.3956 8.41667V7.58333C10.3956 7.04255 9.9572 6.60417 9.41642 6.60417H8.58309ZM7.06226 7.58333C7.06226 6.7434 7.74316 6.0625 8.58309 6.0625H9.41642C10.2564 6.0625 10.9373 6.7434 10.9373 7.58333V8.41667C10.9373 9.2566 10.2564 9.9375 9.41642 9.9375H8.58309C7.74316 9.9375 7.06226 9.2566 7.06226 8.41667V7.58333Z" fill="white"/>
<path d="M8.16642 7.16699H4.83309C4.37285 7.16699 3.99976 7.54009 3.99976 8.00033C3.99976 8.46056 4.37285 8.83366 4.83309 8.83366H8.16642C8.62666 8.83366 8.99976 8.46056 8.99976 8.00033C8.99976 7.54009 8.62666 7.16699 8.16642 7.16699Z" fill="white"/>
<path fill-rule="evenodd" clip-rule="evenodd" d="M4.83293 7.43766C4.52227 7.43766 4.27043 7.6895 4.27043 8.00016C4.27043 8.31082 4.52227 8.56266 4.83293 8.56266H8.16626C8.47692 8.56266 8.72876 8.31082 8.72876 8.00016C8.72876 7.6895 8.47692 7.43766 8.16626 7.43766H4.83293ZM3.72876 8.00016C3.72876 7.39035 4.22311 6.896 4.83293 6.896H8.16626C8.77608 6.896 9.27043 7.39035 9.27043 8.00016C9.27043 8.60998 8.77608 9.10433 8.16626 9.10433H4.83293C4.22311 9.10433 3.72876 8.60998 3.72876 8.00016Z" fill="var(--icon--color, black)"/>
<path d="M11.5542 1.9165H8.44583L6.25 4.11234V7.21859L8.44583 9.4165H11.5521L13.75 7.22067V4.11234L11.5542 1.9165ZM10 7.87484C9.70208 7.87484 9.45833 7.63317 9.45833 7.33317C9.45833 7.03525 9.70208 6.7915 10 6.7915C10.2979 6.7915 10.5417 7.03317 10.5417 7.33317C10.5417 7.63317 10.2979 7.87484 10 7.87484ZM10.4167 6.08317H9.58333V3.58317H10.4167V6.08317Z" fill="black"/>
</svg>
