<svg width="17" height="17" viewBox="0 0 17 17" fill="none" xmlns="http://www.w3.org/2000/svg">
<path d="M15.3262 8C15.3262 12.1421 11.9683 15.5 7.82617 15.5C3.68404 15.5 0.326172 12.1421 0.326172 8C0.326172 3.85786 3.68404 0.5 7.82617 0.5C11.9683 0.5 15.3262 3.85786 15.3262 8Z" fill="var(--client--color, black)"/>
<path d="M16.3795 11.9168C16.3795 14.4272 14.3444 16.4622 11.834 16.4622C9.32364 16.4622 7.28857 14.4272 7.28857 11.9168C7.28857 9.40641 9.32364 7.37134 11.834 7.37134C14.3444 7.37134 16.3795 9.40641 16.3795 11.9168Z" fill="white"/>
<path fill-rule="evenodd" clip-rule="evenodd" d="M11.8339 15.6648C13.9038 15.6648 15.5818 13.9868 15.5818 11.9169C15.5818 9.84695 13.9038 8.16895 11.8339 8.16895C9.76394 8.16895 8.08594 9.84695 8.08594 11.9169C8.08594 13.9868 9.76394 15.6648 11.8339 15.6648ZM10.9797 10.8642C10.9797 11.1719 11.2186 11.3695 11.9615 11.5606C12.7044 11.7517 13.4996 12.0659 13.4996 12.9857C13.4996 13.6497 12.9924 14.0157 12.3542 14.1356V14.8319H11.3724V14.1291C10.7441 13.9963 10.2074 13.5979 10.1681 12.8886H10.8881C10.9241 13.2708 11.1892 13.5687 11.8633 13.5687C12.5866 13.5687 12.7469 13.2125 12.7469 12.989C12.7469 12.6878 12.5833 12.4027 11.7651 12.2084C10.8521 11.9914 10.227 11.6189 10.227 10.8707C10.227 10.2456 10.7376 9.83747 11.3724 9.70143V9.00182H12.3542V9.71115C13.0382 9.87634 13.3818 10.3881 13.4047 10.9452H12.6815C12.6618 10.5403 12.4458 10.265 11.8633 10.265C11.3103 10.265 10.9797 10.5112 10.9797 10.8642Z" fill="#00A3FF"/>
</svg>
