<svg width="1.5em" height="1.5em" style="margin: 0.1em" viewBox="0 0 18 18" fill="#C6C6C6" xmlns="http://www.w3.org/2000/svg">
<path fill-rule="evenodd" clip-rule="evenodd" d="M9 18C13.9706 18 18 13.9706 18 9C18 4.02944 13.9706 0 9 0C4.02944 0 0 4.02944 0 9C0 13.9706 4.02944 18 9 18ZM4.96182 3.3518C6.26296 2.71926 7.88133 2.93904 8.96204 4.01649C9.97822 5.02961 10.2363 6.50909 9.74165 7.76343L15 13.0113L13.0053 15L7.72541 9.73606C6.48341 10.2024 5.02096 9.93976 4.02091 8.94272C2.9402 7.86527 2.71976 6.26251 3.34883 4.95992L5.68229 7.28635L7.29528 5.67822L4.96182 3.3518Z"/>
</svg>
