<svg width="1.5em" height="1.5em" style="margin: 0.1em" viewBox="0 0 18 18" fill="#00A3FF" xmlns="http://www.w3.org/2000/svg">
<path fill-rule="evenodd"  clip-rule="evenodd"  d="M9 18C13.9706 18 18 13.9706 18 9C18 4.02944 13.9706 0 9 0C4.02944 0 0 4.02944 0 9C0 13.9706 4.02944 18 9 18ZM6.94892 6.47222C6.94892 7.21111 7.52259 7.68556 9.30648 8.14444C11.0904 8.60333 13 9.35778 13 11.5667C13 13.1611 11.7819 14.04 10.2495 14.3278V16H7.89194V14.3122C6.3831 13.9933 5.0943 13.0367 5 11.3333H6.72888C6.81532 12.2511 7.45187 12.9667 9.07073 12.9667C10.8075 12.9667 11.1925 12.1111 11.1925 11.5744C11.1925 10.8511 10.7996 10.1667 8.83497 9.7C6.64244 9.17889 5.14145 8.28444 5.14145 6.48778C5.14145 4.98667 6.36739 4.00667 7.89194 3.68V2H10.2495V3.70333C11.8919 4.1 12.7171 5.32889 12.7721 6.66667H11.0354C10.9882 5.69444 10.4695 5.03333 9.07073 5.03333C7.74263 5.03333 6.94892 5.62444 6.94892 6.47222Z"/>
</svg>
