<svg width="13" height="13" viewBox="0 0 13 13" fill="none" xmlns="http://www.w3.org/2000/svg">
<path d="M6.5 11.5C9.26142 11.5 11.5 9.26142 11.5 6.5C11.5 3.73858 9.26142 1.5 6.5 1.5C3.73858 1.5 1.5 3.73858 1.5 6.5C1.5 9.26142 3.73858 11.5 6.5 11.5Z" fill="var(--icon--color, black)"/>
<path fill-rule="evenodd" clip-rule="evenodd" d="M3.80778 5.21143C3.3086 5.21143 2.90393 5.61609 2.90393 6.11527V6.8845C2.90393 7.38368 3.3086 7.78835 3.80778 7.78835H4.57701C5.07619 7.78835 5.48085 7.38368 5.48085 6.8845V6.11527C5.48085 5.61609 5.07619 5.21143 4.57701 5.21143H3.80778ZM2.40393 6.11527C2.40393 5.33995 3.03245 4.71143 3.80778 4.71143H4.57701C5.35233 4.71143 5.98085 5.33995 5.98085 6.11527V6.8845C5.98085 7.65983 5.35233 8.28835 4.57701 8.28835H3.80778C3.03245 8.28835 2.40393 7.65983 2.40393 6.8845V6.11527Z" fill="white"/>
<path fill-rule="evenodd" clip-rule="evenodd" d="M8.42289 5.21143C7.92371 5.21143 7.51904 5.61609 7.51904 6.11527V6.8845C7.51904 7.38368 7.92371 7.78835 8.42289 7.78835H9.19212C9.6913 7.78835 10.096 7.38368 10.096 6.8845V6.11527C10.096 5.61609 9.6913 5.21143 9.19212 5.21143H8.42289ZM7.01904 6.11527C7.01904 5.33995 7.64757 4.71143 8.42289 4.71143H9.19212C9.96744 4.71143 10.596 5.33995 10.596 6.11527V6.8845C10.596 7.65983 9.96744 8.28835 9.19212 8.28835H8.42289C7.64757 8.28835 7.01904 7.65983 7.01904 6.8845V6.11527Z" fill="white"/>
<path d="M8.03817 5.73096H4.96125C4.53641 5.73096 4.19202 6.07535 4.19202 6.50019C4.19202 6.92502 4.53641 7.26942 4.96125 7.26942H8.03817C8.46301 7.26942 8.8074 6.92502 8.8074 6.50019C8.8074 6.07535 8.46301 5.73096 8.03817 5.73096Z" fill="white"/>
<path fill-rule="evenodd" clip-rule="evenodd" d="M4.96125 5.98096C4.67448 5.98096 4.44202 6.21342 4.44202 6.50019C4.44202 6.78695 4.67448 7.01942 4.96125 7.01942H8.03817C8.32493 7.01942 8.5574 6.78695 8.5574 6.50019C8.5574 6.21342 8.32493 5.98096 8.03817 5.98096H4.96125ZM3.94202 6.50019C3.94202 5.93728 4.39834 5.48096 4.96125 5.48096H8.03817C8.60108 5.48096 9.0574 5.93728 9.0574 6.50019C9.0574 7.06309 8.60108 7.51942 8.03817 7.51942H4.96125C4.39834 7.51942 3.94202 7.06309 3.94202 6.50019Z" fill="var(--icon--color, black)"/>
</svg>
