<svg width="32" height="32" viewBox="0 0 32 32" fill="none" xmlns="http://www.w3.org/2000/svg">
<path d="M30.6666 10.6667C30.6666 12.1333 29.4666 13.3333 28 13.3333C27.76 13.3333 27.5333 13.3067 27.32 13.24L22.5733 17.9733C22.64 18.1867 22.6666 18.4267 22.6666 18.6667C22.6666 20.1333 21.4666 21.3333 20 21.3333C18.5333 21.3333 17.3333 20.1333 17.3333 18.6667C17.3333 18.4267 17.36 18.1867 17.4266 17.9733L14.0266 14.5733C13.8133 14.64 13.5733 14.6667 13.3333 14.6667C13.0933 14.6667 12.8533 14.64 12.64 14.5733L6.57331 20.6533C6.63998 20.8667 6.66665 21.0933 6.66665 21.3333C6.66665 22.8 5.46665 24 3.99998 24C2.53331 24 1.33331 22.8 1.33331 21.3333C1.33331 19.8667 2.53331 18.6667 3.99998 18.6667C4.23998 18.6667 4.46665 18.6933 4.67998 18.76L10.76 12.6933C10.6933 12.48 10.6666 12.24 10.6666 12C10.6666 10.5333 11.8666 9.33333 13.3333 9.33333C14.8 9.33333 16 10.5333 16 12C16 12.24 15.9733 12.48 15.9066 12.6933L19.3066 16.0933C19.52 16.0267 19.76 16 20 16C20.24 16 20.48 16.0267 20.6933 16.0933L25.4266 11.3467C25.36 11.1333 25.3333 10.9067 25.3333 10.6667C25.3333 9.2 26.5333 8 28 8C29.4666 8 30.6666 9.2 30.6666 10.6667Z" fill="black"/>
</svg>
