<svg width="15" height="16" viewBox="0 0 15 16" fill="none" xmlns="http://www.w3.org/2000/svg">
<path fill-rule="evenodd" clip-rule="evenodd" d="M9.42848 13.6571C8.84222 13.8413 8.21837 13.9405 7.57134 13.9405C4.15243 13.9405 1.38086 11.169 1.38086 7.75005C1.38086 4.33114 4.15243 1.55957 7.57134 1.55957C8.96521 1.55957 10.2515 2.02025 11.2862 2.79767H9.42848V5.61606C8.98062 5.75755 8.61116 6.07552 8.40169 6.48837H6.74191C6.45509 5.92304 5.86826 5.53562 5.19094 5.53562H4.23856C3.27864 5.53562 2.50047 6.31379 2.50047 7.27372V8.2261C2.50047 9.18602 3.27864 9.96419 4.23856 9.96419H5.19094C5.86796 9.96419 6.45457 9.57711 6.74153 9.01218H8.40207C8.6116 9.42468 8.98089 9.74235 9.42848 9.88375V13.6571ZM5.98813 6.48837H5.66667C4.96974 6.48837 4.40476 7.05335 4.40476 7.75028C4.40476 8.44721 4.96974 9.01218 5.66667 9.01218H5.98739C5.78449 9.21774 5.50259 9.34515 5.19094 9.34515H4.23856C3.62053 9.34515 3.11951 8.84413 3.11951 8.2261V7.27372C3.11951 6.65568 3.62053 6.15467 4.23856 6.15467H5.19094C5.50297 6.15467 5.78517 6.28238 5.98813 6.48837ZM9.15548 6.48837H9.42848V6.28478C9.32724 6.33855 9.23524 6.40742 9.15548 6.48837ZM9.15621 9.01218H9.42848V9.21504C9.32755 9.16143 9.2358 9.09282 9.15621 9.01218Z" fill="var(--icon--color, black)"/>
<path fill-rule="evenodd" clip-rule="evenodd" d="M5.66669 7.10733C5.31165 7.10733 5.02383 7.39515 5.02383 7.75019C5.02383 8.10523 5.31165 8.39304 5.66669 8.39304H9.4285C9.4285 8.39304 9.4285 8.10523 9.4285 7.75019C9.4285 7.39515 9.4285 7.10733 9.4285 7.10733H5.66669ZM4.40479 7.75019C4.40479 7.05326 4.96976 6.48828 5.66669 6.48828H9.4285V7.75019V9.01209H5.66669C4.96976 9.01209 4.40479 8.44712 4.40479 7.75019Z" fill="#FFAC30"/>
<path d="M12.0078 13.6314C12.5776 13.6314 13.0396 13.1694 13.0396 12.5996C13.0396 12.0298 12.5776 11.5679 12.0078 11.5679C11.438 11.5679 10.9761 12.0298 10.9761 12.5996C10.9761 13.1694 11.438 13.6314 12.0078 13.6314Z" fill="black"/>
<path d="M10.9761 4.34546H13.0396V10.5359H10.9761V4.34546Z" fill="black"/>
</svg>
