<svg width="32" height="32" viewBox="0 0 32 32" fill="none" xmlns="http://www.w3.org/2000/svg">
<path d="M22 16C23.84 16 25.32 14.5067 25.32 12.6667C25.32 10.8267 23.84 9.33333 22 9.33333C20.16 9.33333 18.6666 10.8267 18.6666 12.6667C18.6666 14.5067 20.16 16 22 16ZM12 14.6667C14.2066 14.6667 15.9866 12.8733 15.9866 10.6667C15.9866 8.46 14.2066 6.66667 12 6.66667C9.79329 6.66667 7.99996 8.46 7.99996 10.6667C7.99996 12.8733 9.79329 14.6667 12 14.6667ZM22 18.6667C19.5533 18.6667 14.6666 19.8933 14.6666 22.3333V25.3333H29.3333V22.3333C29.3333 19.8933 24.4466 18.6667 22 18.6667ZM12 17.3333C8.88663 17.3333 2.66663 18.8933 2.66663 22V25.3333H12V22.3333C12 21.2 12.4466 19.22 15.16 17.7067C14 17.46 12.8733 17.3333 12 17.3333Z" fill="black"/>
</svg>
