<svg width="200" height="46" viewBox="0 0 200 46" fill="none" xmlns="http://www.w3.org/2000/svg">
<path d="M49.0387 43.6712H59.9338V0.577062H49.0387V43.6712ZM200 11.1496V0.577062H167.314V11.1496H178.21V43.6712H189.105V11.1496H200ZM23.1548 22.1756L12.2597 0.577062H0L23.1962 44.2688L46.3097 0.577062H34.05L23.1548 22.1756ZM151.85 0.577062V43.6712H162.745V0.577062H151.85ZM90.5107 22.1344L65.9913 0V43.6712H76.9072V24.5869L101.427 46V0.577062H90.5313L90.5107 22.1344ZM127.91 33.6138C121.625 33.6138 116.539 28.4615 116.539 22.0932C116.539 15.7249 121.625 10.5726 127.91 10.5726C131.404 10.5726 134.546 12.1801 136.614 14.6944L144.614 7.37814C140.521 2.84409 134.588 0 127.972 0C115.63 0 105.623 9.91308 105.623 22.1344C105.623 34.3557 115.63 44.2688 127.972 44.2688C136.138 44.2688 143.291 39.9202 147.178 33.4489L137.792 27.7608C135.849 31.2437 132.148 33.6138 127.91 33.6138ZM138.495 17.3943C138.392 17.4149 138.33 17.5179 138.371 17.6004C138.95 18.9812 139.281 20.4857 139.281 22.0932C139.281 22.897 139.198 23.6595 139.032 24.422C139.012 24.5251 139.115 24.6281 139.219 24.6075C140.232 24.4633 140.893 24.319 141.307 24.1747C145.09 22.7939 145.255 18.8781 145.152 17.3737C145.131 17.0439 144.842 16.7966 144.49 16.8172L138.495 17.3943ZM130.701 18.2805C130.701 19.0636 131.321 19.7025 132.107 19.7025C132.892 19.7025 133.512 19.0636 133.512 18.2805C133.512 17.4973 132.892 16.8584 132.107 16.8584C131.342 16.8378 130.701 17.4767 130.701 18.2805Z" fill="white"/>
</svg>
